<svg width="800" height="367" viewBox="0 0 800 367" fill="none" xmlns="http://www.w3.org/2000/svg">
<g filter="url(#filter0_i_0_1)">
<rect x="561.194" width="238.806" height="60" rx="30" fill="url(#paint0_linear_0_1)"/>
</g>
<g filter="url(#filter1_i_0_1)">
<rect x="561.194" y="90" width="59.7015" height="60" rx="29.8507" fill="url(#paint1_linear_0_1)"/>
</g>
<g filter="url(#filter2_i_0_1)">
<rect x="561.194" y="180" width="238.806" height="60" rx="30" fill="url(#paint2_linear_0_1)"/>
</g>
<g filter="url(#filter3_i_0_1)">
<rect x="280.597" width="238.806" height="60" rx="30" fill="url(#paint3_linear_0_1)"/>
</g>
<g filter="url(#filter4_i_0_1)">
<rect x="280.597" y="90" width="164.776" height="60" rx="30" fill="url(#paint4_linear_0_1)"/>
</g>
<g filter="url(#filter5_i_0_1)">
<rect x="280.597" y="180" width="59.7015" height="60" rx="29.8507" fill="url(#paint5_linear_0_1)"/>
</g>
<g filter="url(#filter6_i_0_1)">
<rect width="238.806" height="60" rx="30" fill="url(#paint6_linear_0_1)"/>
</g>
<g filter="url(#filter7_i_0_1)">
<rect x="78.8059" y="90" width="160" height="60" rx="30" fill="url(#paint7_linear_0_1)"/>
</g>
<g filter="url(#filter8_i_0_1)">
<rect y="90" width="59.7015" height="60" rx="29.8507" fill="url(#paint8_linear_0_1)"/>
</g>
<g filter="url(#filter9_i_0_1)">
<rect y="180" width="238.806" height="60" rx="30" fill="url(#paint9_linear_0_1)"/>
</g>
<path d="M10.0627 362.75V349.564H48.6728V362.75H10.0627ZM10.0627 299.654V286.468H48.6728V299.654H10.0627ZM10.0627 328.75V315.782H46.4853V328.75H10.0627ZM0 286.468H15.094V362.75H0V286.468Z" fill="white"/>
<path d="M74.1509 300.09V286.468H108.386V300.09H74.1509ZM74.1509 330.167V317.199H107.292V330.167H74.1509ZM64.0882 286.468H79.1822V362.75H64.0882V286.468Z" fill="white"/>
<path d="M135.307 324.609C135.307 329.622 136.437 334.017 138.698 337.795C141.031 341.5 144.057 344.37 147.776 346.404C151.495 348.365 155.542 349.346 159.917 349.346C163.563 349.346 166.808 348.874 169.652 347.929C172.495 346.985 175.048 345.714 177.308 344.115C179.641 342.517 181.647 340.774 183.324 338.885V356.429C180.188 358.9 176.761 360.825 173.042 362.205C169.396 363.585 164.766 364.276 159.151 364.276C153.318 364.276 147.886 363.331 142.854 361.442C137.896 359.553 133.557 356.829 129.838 353.269C126.192 349.709 123.349 345.532 121.307 340.737C119.338 335.87 118.354 330.494 118.354 324.609C118.354 318.724 119.338 313.385 121.307 308.59C123.349 303.722 126.192 299.509 129.838 295.949C133.557 292.389 137.896 289.665 142.854 287.776C147.886 285.887 153.318 284.942 159.151 284.942C164.766 284.942 169.396 285.632 173.042 287.013C176.761 288.393 180.188 290.318 183.324 292.788V310.333C181.647 308.444 179.641 306.701 177.308 305.103C175.048 303.504 172.495 302.233 169.652 301.288C166.808 300.344 163.563 299.872 159.917 299.872C155.542 299.872 151.495 300.889 147.776 302.923C144.057 304.885 141.031 307.718 138.698 311.423C136.437 315.128 135.307 319.524 135.307 324.609Z" fill="white"/>
<path d="M238.351 337.141C239.955 339.974 241.705 342.444 243.601 344.551C245.57 346.658 247.721 348.293 250.054 349.455C252.388 350.618 254.903 351.199 257.601 351.199C260.737 351.199 263.289 350.4 265.258 348.801C267.226 347.203 268.211 345.024 268.211 342.263C268.211 339.865 267.591 337.94 266.351 336.487C265.185 335.034 263.398 333.763 260.992 332.673C258.658 331.511 255.778 330.276 252.351 328.968C250.528 328.314 248.413 327.442 246.007 326.353C243.674 325.19 241.45 323.737 239.335 321.994C237.221 320.177 235.471 317.998 234.085 315.455C232.7 312.84 232.007 309.716 232.007 306.083C232.007 301.724 233.101 297.983 235.288 294.859C237.549 291.662 240.575 289.229 244.367 287.558C248.231 285.814 252.533 284.942 257.273 284.942C262.159 284.942 266.351 285.778 269.851 287.449C273.424 289.047 276.378 291.118 278.711 293.66C281.117 296.13 282.977 298.709 284.289 301.397L272.039 308.154C271.018 306.338 269.778 304.703 268.32 303.25C266.935 301.724 265.33 300.526 263.508 299.654C261.685 298.709 259.606 298.237 257.273 298.237C254.21 298.237 251.914 298.964 250.382 300.417C248.851 301.797 248.085 303.432 248.085 305.321C248.085 307.209 248.705 308.88 249.945 310.333C251.184 311.714 253.08 313.058 255.632 314.365C258.185 315.6 261.393 316.872 265.258 318.179C267.737 319.051 270.107 320.141 272.367 321.449C274.7 322.756 276.779 324.355 278.602 326.244C280.497 328.06 281.956 330.239 282.977 332.782C284.07 335.252 284.617 338.122 284.617 341.391C284.617 345.096 283.888 348.402 282.43 351.308C280.971 354.214 278.966 356.684 276.414 358.718C273.862 360.679 270.982 362.169 267.773 363.186C264.638 364.276 261.32 364.821 257.82 364.821C253.153 364.821 248.778 363.949 244.695 362.205C240.684 360.389 237.184 357.955 234.194 354.904C231.205 351.853 228.871 348.547 227.194 344.987L238.351 337.141Z" fill="white"/>
<path d="M309.51 324.609C309.51 329.476 310.531 333.799 312.573 337.577C314.614 341.355 317.422 344.333 320.995 346.513C324.568 348.692 328.724 349.782 333.464 349.782C338.203 349.782 342.36 348.692 345.933 346.513C349.506 344.333 352.276 341.355 354.245 337.577C356.287 333.799 357.308 329.476 357.308 324.609C357.308 319.741 356.323 315.419 354.355 311.641C352.386 307.863 349.615 304.885 346.042 302.705C342.469 300.526 338.276 299.436 333.464 299.436C328.724 299.436 324.568 300.526 320.995 302.705C317.422 304.885 314.614 307.863 312.573 311.641C310.531 315.419 309.51 319.741 309.51 324.609ZM292.994 324.609C292.994 318.797 294.015 313.494 296.057 308.699C298.098 303.831 300.942 299.618 304.588 296.058C308.234 292.498 312.5 289.774 317.385 287.885C322.344 285.923 327.703 284.942 333.464 284.942C339.297 284.942 344.657 285.923 349.542 287.885C354.428 289.774 358.693 292.498 362.339 296.058C366.058 299.618 368.902 303.831 370.871 308.699C372.912 313.494 373.933 318.797 373.933 324.609C373.933 330.348 372.912 335.688 370.871 340.628C368.902 345.496 366.094 349.746 362.449 353.378C358.876 357.011 354.61 359.844 349.651 361.878C344.766 363.84 339.37 364.821 333.464 364.821C327.557 364.821 322.125 363.84 317.166 361.878C312.281 359.844 308.015 357.011 304.369 353.378C300.723 349.746 297.916 345.496 295.947 340.628C293.978 335.688 292.994 330.348 292.994 324.609Z" fill="white"/>
<path d="M396.087 300.09V286.468H430.322V300.09H396.087ZM396.087 330.167V317.199H429.228V330.167H396.087ZM386.024 286.468H401.118V362.75H386.024V286.468Z" fill="white"/>
<path d="M433.698 300.526V286.468H490.574V300.526H469.901V362.75H454.26V300.526H433.698Z" fill="white"/>
<path d="M572.992 333.872L589.398 286.468H607.774L575.508 367L551.445 316.872L527.272 367L495.115 286.468H513.491L530.116 333.872L551.445 282.654L572.992 333.872Z" fill="white"/>
<path d="M616.35 345.423L618.209 333.109H654.96L656.819 345.423H616.35ZM636.366 311.205L624.881 337.468L625.209 340.955L615.147 362.75H597.537L636.366 282L675.195 362.75H657.476L647.632 341.609L647.85 337.686L636.366 311.205Z" fill="white"/>
<path d="M700.891 327.224H717.407L742.345 362.75H723.861L700.891 327.224ZM683.5 286.468H699.141V362.75H683.5V286.468ZM693.016 299.763V286.468H709.204C715.256 286.468 720.397 287.485 724.626 289.519C728.856 291.553 732.1 294.387 734.361 298.019C736.621 301.652 737.752 305.902 737.752 310.769C737.752 315.564 736.621 319.814 734.361 323.519C732.1 327.152 728.856 329.985 724.626 332.019C720.397 334.053 715.256 335.071 709.204 335.071H693.016V322.647H708.22C710.991 322.647 713.36 322.212 715.329 321.34C717.371 320.395 718.939 319.088 720.032 317.417C721.126 315.673 721.673 313.603 721.673 311.205C721.673 308.808 721.126 306.774 720.032 305.103C718.939 303.359 717.371 302.051 715.329 301.179C713.36 300.235 710.991 299.763 708.22 299.763H693.016Z" fill="white"/>
<path d="M761.39 362.75V349.564H800V362.75H761.39ZM761.39 299.654V286.468H800V299.654H761.39ZM761.39 328.75V315.782H797.812V328.75H761.39ZM751.327 286.468H766.421V362.75H751.327V286.468Z" fill="white"/>
<defs>
<filter id="filter0_i_0_1" x="561.194" y="0" width="238.806" height="71" filterUnits="userSpaceOnUse" color-interpolation-filters="sRGB">
<feFlood flood-opacity="0" result="BackgroundImageFix"/>
<feBlend mode="normal" in="SourceGraphic" in2="BackgroundImageFix" result="shape"/>
<feColorMatrix in="SourceAlpha" type="matrix" values="0 0 0 0 0 0 0 0 0 0 0 0 0 0 0 0 0 0 127 0" result="hardAlpha"/>
<feMorphology radius="3" operator="erode" in="SourceAlpha" result="effect1_innerShadow_0_1"/>
<feOffset dy="11"/>
<feGaussianBlur stdDeviation="6.5"/>
<feComposite in2="hardAlpha" operator="arithmetic" k2="-1" k3="1"/>
<feColorMatrix type="matrix" values="0 0 0 0 0.245833 0 0 0 0 0.457 0 0 0 0 1 0 0 0 0.25 0"/>
<feBlend mode="normal" in2="shape" result="effect1_innerShadow_0_1"/>
</filter>
<filter id="filter1_i_0_1" x="561.194" y="90" width="59.7015" height="71" filterUnits="userSpaceOnUse" color-interpolation-filters="sRGB">
<feFlood flood-opacity="0" result="BackgroundImageFix"/>
<feBlend mode="normal" in="SourceGraphic" in2="BackgroundImageFix" result="shape"/>
<feColorMatrix in="SourceAlpha" type="matrix" values="0 0 0 0 0 0 0 0 0 0 0 0 0 0 0 0 0 0 127 0" result="hardAlpha"/>
<feMorphology radius="3" operator="erode" in="SourceAlpha" result="effect1_innerShadow_0_1"/>
<feOffset dy="11"/>
<feGaussianBlur stdDeviation="6.5"/>
<feComposite in2="hardAlpha" operator="arithmetic" k2="-1" k3="1"/>
<feColorMatrix type="matrix" values="0 0 0 0 0.245833 0 0 0 0 0.457 0 0 0 0 1 0 0 0 0.25 0"/>
<feBlend mode="normal" in2="shape" result="effect1_innerShadow_0_1"/>
</filter>
<filter id="filter2_i_0_1" x="561.194" y="180" width="238.806" height="71" filterUnits="userSpaceOnUse" color-interpolation-filters="sRGB">
<feFlood flood-opacity="0" result="BackgroundImageFix"/>
<feBlend mode="normal" in="SourceGraphic" in2="BackgroundImageFix" result="shape"/>
<feColorMatrix in="SourceAlpha" type="matrix" values="0 0 0 0 0 0 0 0 0 0 0 0 0 0 0 0 0 0 127 0" result="hardAlpha"/>
<feMorphology radius="3" operator="erode" in="SourceAlpha" result="effect1_innerShadow_0_1"/>
<feOffset dy="11"/>
<feGaussianBlur stdDeviation="6.5"/>
<feComposite in2="hardAlpha" operator="arithmetic" k2="-1" k3="1"/>
<feColorMatrix type="matrix" values="0 0 0 0 0.245833 0 0 0 0 0.457 0 0 0 0 1 0 0 0 0.25 0"/>
<feBlend mode="normal" in2="shape" result="effect1_innerShadow_0_1"/>
</filter>
<filter id="filter3_i_0_1" x="280.597" y="0" width="238.806" height="71" filterUnits="userSpaceOnUse" color-interpolation-filters="sRGB">
<feFlood flood-opacity="0" result="BackgroundImageFix"/>
<feBlend mode="normal" in="SourceGraphic" in2="BackgroundImageFix" result="shape"/>
<feColorMatrix in="SourceAlpha" type="matrix" values="0 0 0 0 0 0 0 0 0 0 0 0 0 0 0 0 0 0 127 0" result="hardAlpha"/>
<feMorphology radius="3" operator="erode" in="SourceAlpha" result="effect1_innerShadow_0_1"/>
<feOffset dy="11"/>
<feGaussianBlur stdDeviation="6.5"/>
<feComposite in2="hardAlpha" operator="arithmetic" k2="-1" k3="1"/>
<feColorMatrix type="matrix" values="0 0 0 0 0.245833 0 0 0 0 0.457 0 0 0 0 1 0 0 0 0.25 0"/>
<feBlend mode="normal" in2="shape" result="effect1_innerShadow_0_1"/>
</filter>
<filter id="filter4_i_0_1" x="280.597" y="90" width="164.776" height="71" filterUnits="userSpaceOnUse" color-interpolation-filters="sRGB">
<feFlood flood-opacity="0" result="BackgroundImageFix"/>
<feBlend mode="normal" in="SourceGraphic" in2="BackgroundImageFix" result="shape"/>
<feColorMatrix in="SourceAlpha" type="matrix" values="0 0 0 0 0 0 0 0 0 0 0 0 0 0 0 0 0 0 127 0" result="hardAlpha"/>
<feMorphology radius="3" operator="erode" in="SourceAlpha" result="effect1_innerShadow_0_1"/>
<feOffset dy="11"/>
<feGaussianBlur stdDeviation="6.5"/>
<feComposite in2="hardAlpha" operator="arithmetic" k2="-1" k3="1"/>
<feColorMatrix type="matrix" values="0 0 0 0 0.245833 0 0 0 0 0.457 0 0 0 0 1 0 0 0 0.25 0"/>
<feBlend mode="normal" in2="shape" result="effect1_innerShadow_0_1"/>
</filter>
<filter id="filter5_i_0_1" x="280.597" y="180" width="59.7015" height="71" filterUnits="userSpaceOnUse" color-interpolation-filters="sRGB">
<feFlood flood-opacity="0" result="BackgroundImageFix"/>
<feBlend mode="normal" in="SourceGraphic" in2="BackgroundImageFix" result="shape"/>
<feColorMatrix in="SourceAlpha" type="matrix" values="0 0 0 0 0 0 0 0 0 0 0 0 0 0 0 0 0 0 127 0" result="hardAlpha"/>
<feMorphology radius="3" operator="erode" in="SourceAlpha" result="effect1_innerShadow_0_1"/>
<feOffset dy="11"/>
<feGaussianBlur stdDeviation="6.5"/>
<feComposite in2="hardAlpha" operator="arithmetic" k2="-1" k3="1"/>
<feColorMatrix type="matrix" values="0 0 0 0 0.245833 0 0 0 0 0.457 0 0 0 0 1 0 0 0 0.25 0"/>
<feBlend mode="normal" in2="shape" result="effect1_innerShadow_0_1"/>
</filter>
<filter id="filter6_i_0_1" x="0" y="0" width="238.806" height="71" filterUnits="userSpaceOnUse" color-interpolation-filters="sRGB">
<feFlood flood-opacity="0" result="BackgroundImageFix"/>
<feBlend mode="normal" in="SourceGraphic" in2="BackgroundImageFix" result="shape"/>
<feColorMatrix in="SourceAlpha" type="matrix" values="0 0 0 0 0 0 0 0 0 0 0 0 0 0 0 0 0 0 127 0" result="hardAlpha"/>
<feMorphology radius="3" operator="erode" in="SourceAlpha" result="effect1_innerShadow_0_1"/>
<feOffset dy="11"/>
<feGaussianBlur stdDeviation="6.5"/>
<feComposite in2="hardAlpha" operator="arithmetic" k2="-1" k3="1"/>
<feColorMatrix type="matrix" values="0 0 0 0 0.245833 0 0 0 0 0.457 0 0 0 0 1 0 0 0 0.25 0"/>
<feBlend mode="normal" in2="shape" result="effect1_innerShadow_0_1"/>
</filter>
<filter id="filter7_i_0_1" x="78.8059" y="90" width="160" height="71" filterUnits="userSpaceOnUse" color-interpolation-filters="sRGB">
<feFlood flood-opacity="0" result="BackgroundImageFix"/>
<feBlend mode="normal" in="SourceGraphic" in2="BackgroundImageFix" result="shape"/>
<feColorMatrix in="SourceAlpha" type="matrix" values="0 0 0 0 0 0 0 0 0 0 0 0 0 0 0 0 0 0 127 0" result="hardAlpha"/>
<feMorphology radius="3" operator="erode" in="SourceAlpha" result="effect1_innerShadow_0_1"/>
<feOffset dy="11"/>
<feGaussianBlur stdDeviation="6.5"/>
<feComposite in2="hardAlpha" operator="arithmetic" k2="-1" k3="1"/>
<feColorMatrix type="matrix" values="0 0 0 0 0.245833 0 0 0 0 0.457 0 0 0 0 1 0 0 0 0.25 0"/>
<feBlend mode="normal" in2="shape" result="effect1_innerShadow_0_1"/>
</filter>
<filter id="filter8_i_0_1" x="0" y="90" width="59.7015" height="71" filterUnits="userSpaceOnUse" color-interpolation-filters="sRGB">
<feFlood flood-opacity="0" result="BackgroundImageFix"/>
<feBlend mode="normal" in="SourceGraphic" in2="BackgroundImageFix" result="shape"/>
<feColorMatrix in="SourceAlpha" type="matrix" values="0 0 0 0 0 0 0 0 0 0 0 0 0 0 0 0 0 0 127 0" result="hardAlpha"/>
<feMorphology radius="3" operator="erode" in="SourceAlpha" result="effect1_innerShadow_0_1"/>
<feOffset dy="11"/>
<feGaussianBlur stdDeviation="6.5"/>
<feComposite in2="hardAlpha" operator="arithmetic" k2="-1" k3="1"/>
<feColorMatrix type="matrix" values="0 0 0 0 0.245833 0 0 0 0 0.457 0 0 0 0 1 0 0 0 0.25 0"/>
<feBlend mode="normal" in2="shape" result="effect1_innerShadow_0_1"/>
</filter>
<filter id="filter9_i_0_1" x="0" y="180" width="238.806" height="71" filterUnits="userSpaceOnUse" color-interpolation-filters="sRGB">
<feFlood flood-opacity="0" result="BackgroundImageFix"/>
<feBlend mode="normal" in="SourceGraphic" in2="BackgroundImageFix" result="shape"/>
<feColorMatrix in="SourceAlpha" type="matrix" values="0 0 0 0 0 0 0 0 0 0 0 0 0 0 0 0 0 0 127 0" result="hardAlpha"/>
<feMorphology radius="3" operator="erode" in="SourceAlpha" result="effect1_innerShadow_0_1"/>
<feOffset dy="11"/>
<feGaussianBlur stdDeviation="6.5"/>
<feComposite in2="hardAlpha" operator="arithmetic" k2="-1" k3="1"/>
<feColorMatrix type="matrix" values="0 0 0 0 0.245833 0 0 0 0 0.457 0 0 0 0 1 0 0 0 0.25 0"/>
<feBlend mode="normal" in2="shape" result="effect1_innerShadow_0_1"/>
</filter>
<linearGradient id="paint0_linear_0_1" x1="680.597" y1="0" x2="680.597" y2="60" gradientUnits="userSpaceOnUse">
<stop offset="0.427083" stop-color="#6BE4FF"/>
<stop offset="1" stop-color="#66FFDA"/>
</linearGradient>
<linearGradient id="paint1_linear_0_1" x1="591.045" y1="90" x2="591.045" y2="150" gradientUnits="userSpaceOnUse">
<stop offset="0.427083" stop-color="#6BE4FF"/>
<stop offset="1" stop-color="#66FFDA"/>
</linearGradient>
<linearGradient id="paint2_linear_0_1" x1="680.597" y1="180" x2="680.597" y2="240" gradientUnits="userSpaceOnUse">
<stop offset="0.427083" stop-color="#6BE4FF"/>
<stop offset="1" stop-color="#66FFDA"/>
</linearGradient>
<linearGradient id="paint3_linear_0_1" x1="400" y1="0" x2="400" y2="60" gradientUnits="userSpaceOnUse">
<stop offset="0.427083" stop-color="#6BE4FF"/>
<stop offset="1" stop-color="#66FFDA"/>
</linearGradient>
<linearGradient id="paint4_linear_0_1" x1="362.985" y1="90" x2="362.985" y2="150" gradientUnits="userSpaceOnUse">
<stop offset="0.427083" stop-color="#6BE4FF"/>
<stop offset="1" stop-color="#66FFDA"/>
</linearGradient>
<linearGradient id="paint5_linear_0_1" x1="310.448" y1="180" x2="310.448" y2="240" gradientUnits="userSpaceOnUse">
<stop offset="0.427083" stop-color="#6BE4FF"/>
<stop offset="1" stop-color="#66FFDA"/>
</linearGradient>
<linearGradient id="paint6_linear_0_1" x1="119.403" y1="0" x2="119.403" y2="60" gradientUnits="userSpaceOnUse">
<stop offset="0.427083" stop-color="#6BE4FF"/>
<stop offset="1" stop-color="#66FFDA"/>
</linearGradient>
<linearGradient id="paint7_linear_0_1" x1="158.806" y1="90" x2="158.806" y2="150" gradientUnits="userSpaceOnUse">
<stop offset="0.427083" stop-color="#6BE4FF"/>
<stop offset="1" stop-color="#66FFDA"/>
</linearGradient>
<linearGradient id="paint8_linear_0_1" x1="29.8507" y1="90" x2="29.8507" y2="150" gradientUnits="userSpaceOnUse">
<stop offset="0.427083" stop-color="#6BE4FF"/>
<stop offset="1" stop-color="#66FFDA"/>
</linearGradient>
<linearGradient id="paint9_linear_0_1" x1="119.403" y1="180" x2="119.403" y2="240" gradientUnits="userSpaceOnUse">
<stop offset="0.427083" stop-color="#6BE4FF"/>
<stop offset="1" stop-color="#66FFDA"/>
</linearGradient>
</defs>
</svg>
