<svg version="1.2" xmlns="http://www.w3.org/2000/svg" viewBox="0 0 206 125" width="206" height="125"><style>.a{fill:#f05a22}.bWhite{fill:#ffffff}</style><path class="a" d="m149.1 20.3h-13.5l12-5.1 0.4-0.2-1.3-3-11.9 5.1 9.2-9.1-2.4-2.3-9.5 9.5 4.9-12.1 0.1-0.4-3-1.2-4.8 12v-13h-3.3v13.5l-5.1-12-0.2-0.4-3 1.3 5.1 11.9-9.2-9.1-2.3 2.3 9.5 9.5-12-4.8-0.4-0.2-1.3 3 12 4.8h-12.9v3.3h13.4l-11.9 5.1-0.4 0.2 1.3 3 11.9-5.1-9.2 9.2 2.3 2.3 9.5-9.5-4.8 12-0.1 0.5 3 1.2 4.8-12v12.9h3.3v-13.4l5.1 11.9 0.2 0.4 3-1.3-5.1-11.9 9.1 9.2 2.4-2.3-9.6-9.5 12.1 4.8 0.4 0.2 1.2-3.1-12-4.8h13z"/><path class="bWhite" d="m115.6 47.1q-7.6-9.3-21.5-9.3h-1.2q-9.2 0-15.6 4.2-6.4 4.1-9.7 12.4-1.3 3.4-2 7.4v-21.3h-21.3v81.6h26.9v-47.2q0-5.9 3.5-9.5 3.4-3.6 9.2-3.6 5.8 0 9.1 3.6 3.3 3.6 3.3 9.2v47.5h26.9v-46.7q0-19.1-7.6-28.3z"/><path fill-rule="evenodd" class="bWhite" d="m193.1 45.3q10.1 7.2 10.7 20.6h-23.7q-0.6-3.7-4-6.3-3.4-2.6-9.7-2.6-4.6 0-7.5 1.7-2.9 1.6-2.9 4.5 0 3.1 2.8 4.6 2.7 1.5 8.7 2.2l5.7 0.6q15.6 1.7 24.1 8.7 8.5 7 8.5 18.4 0 8.4-4.5 14.5-4.5 6-12.8 9.3-8.4 3.2-19.9 3.2-17.8 0-28-7.3-10.2-7.3-10.9-20.6h23.7q0.5 3.7 4.5 6.3 4 2.7 11.3 2.7 5.1 0 8.9-1.5 3.8-1.6 3.8-5.1 0-3.1-3-5.1-2.9-2-10.8-2.8l-5.6-0.6q-15.6-1.6-23-8.5-7.4-7-7.4-17.5 0-9 4.4-14.8 4.4-5.9 12.3-8.8 7.8-3 17.9-3 16.4 0 26.4 7.2zm-43.3-1.4c-4.6 1.8-8.3 4.4-10.9 7.8-2.5 3.3-3.8 7.7-3.8 13 0 6.2 2.1 11.2 6.4 15.2 4.5 4.2 11.6 6.8 21.3 7.8l5.7 0.6c5.7 0.5 9.7 1.6 12.1 3.2 3.6 2.4 4.3 5.5 4.3 7.7 0 3.6-2 6.4-5.6 7.9-2.9 1.1-6.3 1.7-10.1 1.7-5.4 0-9.8-1-12.9-3.1q-3.8-2.5-5.2-5.9h-18c1 6.4 4.1 11.4 9.3 15.1 6.3 4.5 15.1 6.8 26.2 6.8 7.2 0 13.6-1 18.8-3.1 5-1.9 8.8-4.7 11.5-8.3 2.6-3.5 3.9-7.6 3.9-12.6 0-6.7-2.4-12-7.4-16.1-5.2-4.3-12.8-6.9-22.6-7.9l-5.6-0.6c-4.5-0.6-7.7-1.4-9.9-2.6-2.8-1.5-4.3-4.1-4.3-7.3 0-2.1 0.7-5.1 4.4-7.2 2.4-1.3 5.4-2 9-2 4.9 0 8.8 1.1 11.6 3.2q3.1 2.4 4.4 5.7h18c-0.9-6.5-3.9-11.5-9.1-15.1-6.1-4.4-14.4-6.6-24.6-6.6-6.3 0-12 0.9-16.9 2.7z"/><path class="bWhite" d="m33.8 12.5c-5.2-5.3-13.7-5.3-19 0-5.2 5.2-5.2 13.7 0 19 5.3 5.2 13.8 5.2 19 0 5.3-5.3 5.3-13.8 0-19z"/><path class="bWhite" d="m10.9 40.5h-10.4v19.5h10.4v62.1h26.9v-62.1-19.5z"/></svg>